<svg xmlns="http://www.w3.org/2000/svg" viewBox="0 0 800 800" role="img" aria-label="Nahaufnahme Zifferblatt"><title>Nahaufnahme Zifferblatt</title>
<rect width="800" height="800" fill="#e7e2d9"/>
<defs>
  <linearGradient id="dial-case" x1="0" y1="0" x2="1" y2="1">
    <stop offset="0" stop-color="#e9e6e0"/><stop offset=".55" stop-color="#8f8b84"/><stop offset="1" stop-color="#e9e6e0"/>
  </linearGradient>
  <radialGradient id="dial-dial" cx=".4" cy=".35" r=".8">
    <stop offset="0" stop-color="#f4f1ea"/><stop offset="1" stop-color="#f4f1ea" stop-opacity=".82"/>
  </radialGradient>
  <linearGradient id="dial-strap" x1="0" y1="0" x2="1" y2="0">
    <stop offset="0" stop-color="#2a2826" stop-opacity=".85"/><stop offset=".5" stop-color="#2a2826"/><stop offset="1" stop-color="#2a2826" stop-opacity=".8"/>
  </linearGradient>
  <filter id="dial-sh" x="-50%" y="-50%" width="200%" height="200%"><feGaussianBlur stdDeviation="39.6"/></filter>
</defs>
<ellipse cx="482.5" cy="499.0" rx="346.5" ry="363.00000000000006" fill="#000" opacity=".18" filter="url(#dial-sh)"/>
<rect x="337.29999999999995" y="-21.0" width="257.40000000000003" height="1040" rx="77.22000000000001" fill="#000" opacity=".12" filter="url(#dial-sh)"/>
<rect x="271.29999999999995" y="-120" width="257.40000000000003" height="355.0" rx="56.62800000000001" fill="url(#dial-strap)"/>
<rect x="271.29999999999995" y="565.0" width="257.40000000000003" height="355.0" rx="56.62800000000001" fill="url(#dial-strap)"/>
<line x1="297.03999999999996" y1="-55.64999999999999" x2="297.03999999999996" y2="103.0" stroke="#fff" stroke-opacity=".18" stroke-width="3.96" stroke-dasharray="13.2 9.9"/>
<line x1="502.96000000000004" y1="-55.64999999999999" x2="502.96000000000004" y2="103.0" stroke="#fff" stroke-opacity=".18" stroke-width="3.96" stroke-dasharray="13.2 9.9"/>
<line x1="297.03999999999996" y1="697.0" x2="297.03999999999996" y2="855.65" stroke="#fff" stroke-opacity=".18" stroke-width="3.96" stroke-dasharray="13.2 9.9"/>
<line x1="502.96000000000004" y1="697.0" x2="502.96000000000004" y2="855.65" stroke="#fff" stroke-opacity=".18" stroke-width="3.96" stroke-dasharray="13.2 9.9"/>
<rect x="265.492" y="36.99999999999996" width="52.800000000000004" height="105.60000000000001" rx="16.5" fill="url(#dial-case)"/>
<rect x="481.708" y="36.99999999999996" width="52.800000000000004" height="105.60000000000001" rx="16.5" fill="url(#dial-case)"/>
<rect x="265.492" y="657.4000000000001" width="52.800000000000004" height="105.60000000000001" rx="16.5" fill="url(#dial-case)"/>
<rect x="481.708" y="657.4000000000001" width="52.800000000000004" height="105.60000000000001" rx="16.5" fill="url(#dial-case)"/>
<rect x="723.4" y="363.7" width="46.2" height="72.6" rx="9.9" fill="url(#dial-case)"/>
<circle cx="400" cy="400" r="330" fill="url(#dial-case)"/>
<circle cx="400" cy="400" r="306.90000000000003" fill="#8f8b84" opacity=".35"/>
<circle cx="400" cy="400" r="297.0" fill="url(#dial-dial)"/>
<line x1="400.00" y1="122.80" x2="400.00" y2="188.80" stroke="#1a1a1a" stroke-width="13.20" stroke-linecap="round"/>
<line x1="428.98" y1="124.32" x2="427.60" y2="137.45" stroke="#1a1a1a" stroke-width="2.64" stroke-linecap="round"/>
<line x1="457.63" y1="128.86" x2="454.89" y2="141.77" stroke="#1a1a1a" stroke-width="2.64" stroke-linecap="round"/>
<line x1="485.66" y1="136.37" x2="481.58" y2="148.92" stroke="#1a1a1a" stroke-width="2.64" stroke-linecap="round"/>
<line x1="512.75" y1="146.77" x2="507.38" y2="158.82" stroke="#1a1a1a" stroke-width="2.64" stroke-linecap="round"/>
<line x1="538.60" y1="159.94" x2="515.50" y2="199.95" stroke="#1a1a1a" stroke-width="9.24" stroke-linecap="round"/>
<line x1="562.93" y1="175.74" x2="555.18" y2="186.42" stroke="#1a1a1a" stroke-width="2.64" stroke-linecap="round"/>
<line x1="585.48" y1="194.00" x2="576.65" y2="203.81" stroke="#1a1a1a" stroke-width="2.64" stroke-linecap="round"/>
<line x1="606.00" y1="214.52" x2="596.19" y2="223.35" stroke="#1a1a1a" stroke-width="2.64" stroke-linecap="round"/>
<line x1="624.26" y1="237.07" x2="613.58" y2="244.82" stroke="#1a1a1a" stroke-width="2.64" stroke-linecap="round"/>
<line x1="640.06" y1="261.40" x2="600.05" y2="284.50" stroke="#1a1a1a" stroke-width="9.24" stroke-linecap="round"/>
<line x1="653.23" y1="287.25" x2="641.18" y2="292.62" stroke="#1a1a1a" stroke-width="2.64" stroke-linecap="round"/>
<line x1="663.63" y1="314.34" x2="651.08" y2="318.42" stroke="#1a1a1a" stroke-width="2.64" stroke-linecap="round"/>
<line x1="671.14" y1="342.37" x2="658.23" y2="345.11" stroke="#1a1a1a" stroke-width="2.64" stroke-linecap="round"/>
<line x1="675.68" y1="371.02" x2="662.55" y2="372.40" stroke="#1a1a1a" stroke-width="2.64" stroke-linecap="round"/>
<line x1="677.20" y1="400.00" x2="631.00" y2="400.00" stroke="#1a1a1a" stroke-width="9.24" stroke-linecap="round"/>
<line x1="675.68" y1="428.98" x2="662.55" y2="427.60" stroke="#1a1a1a" stroke-width="2.64" stroke-linecap="round"/>
<line x1="671.14" y1="457.63" x2="658.23" y2="454.89" stroke="#1a1a1a" stroke-width="2.64" stroke-linecap="round"/>
<line x1="663.63" y1="485.66" x2="651.08" y2="481.58" stroke="#1a1a1a" stroke-width="2.64" stroke-linecap="round"/>
<line x1="653.23" y1="512.75" x2="641.18" y2="507.38" stroke="#1a1a1a" stroke-width="2.64" stroke-linecap="round"/>
<line x1="640.06" y1="538.60" x2="600.05" y2="515.50" stroke="#1a1a1a" stroke-width="9.24" stroke-linecap="round"/>
<line x1="624.26" y1="562.93" x2="613.58" y2="555.18" stroke="#1a1a1a" stroke-width="2.64" stroke-linecap="round"/>
<line x1="606.00" y1="585.48" x2="596.19" y2="576.65" stroke="#1a1a1a" stroke-width="2.64" stroke-linecap="round"/>
<line x1="585.48" y1="606.00" x2="576.65" y2="596.19" stroke="#1a1a1a" stroke-width="2.64" stroke-linecap="round"/>
<line x1="562.93" y1="624.26" x2="555.18" y2="613.58" stroke="#1a1a1a" stroke-width="2.64" stroke-linecap="round"/>
<line x1="538.60" y1="640.06" x2="515.50" y2="600.05" stroke="#1a1a1a" stroke-width="9.24" stroke-linecap="round"/>
<line x1="512.75" y1="653.23" x2="507.38" y2="641.18" stroke="#1a1a1a" stroke-width="2.64" stroke-linecap="round"/>
<line x1="485.66" y1="663.63" x2="481.58" y2="651.08" stroke="#1a1a1a" stroke-width="2.64" stroke-linecap="round"/>
<line x1="457.63" y1="671.14" x2="454.89" y2="658.23" stroke="#1a1a1a" stroke-width="2.64" stroke-linecap="round"/>
<line x1="428.98" y1="675.68" x2="427.60" y2="662.55" stroke="#1a1a1a" stroke-width="2.64" stroke-linecap="round"/>
<line x1="400.00" y1="677.20" x2="400.00" y2="631.00" stroke="#1a1a1a" stroke-width="9.24" stroke-linecap="round"/>
<line x1="371.02" y1="675.68" x2="372.40" y2="662.55" stroke="#1a1a1a" stroke-width="2.64" stroke-linecap="round"/>
<line x1="342.37" y1="671.14" x2="345.11" y2="658.23" stroke="#1a1a1a" stroke-width="2.64" stroke-linecap="round"/>
<line x1="314.34" y1="663.63" x2="318.42" y2="651.08" stroke="#1a1a1a" stroke-width="2.64" stroke-linecap="round"/>
<line x1="287.25" y1="653.23" x2="292.62" y2="641.18" stroke="#1a1a1a" stroke-width="2.64" stroke-linecap="round"/>
<line x1="261.40" y1="640.06" x2="284.50" y2="600.05" stroke="#1a1a1a" stroke-width="9.24" stroke-linecap="round"/>
<line x1="237.07" y1="624.26" x2="244.82" y2="613.58" stroke="#1a1a1a" stroke-width="2.64" stroke-linecap="round"/>
<line x1="214.52" y1="606.00" x2="223.35" y2="596.19" stroke="#1a1a1a" stroke-width="2.64" stroke-linecap="round"/>
<line x1="194.00" y1="585.48" x2="203.81" y2="576.65" stroke="#1a1a1a" stroke-width="2.64" stroke-linecap="round"/>
<line x1="175.74" y1="562.93" x2="186.42" y2="555.18" stroke="#1a1a1a" stroke-width="2.64" stroke-linecap="round"/>
<line x1="159.94" y1="538.60" x2="199.95" y2="515.50" stroke="#1a1a1a" stroke-width="9.24" stroke-linecap="round"/>
<line x1="146.77" y1="512.75" x2="158.82" y2="507.38" stroke="#1a1a1a" stroke-width="2.64" stroke-linecap="round"/>
<line x1="136.37" y1="485.66" x2="148.92" y2="481.58" stroke="#1a1a1a" stroke-width="2.64" stroke-linecap="round"/>
<line x1="128.86" y1="457.63" x2="141.77" y2="454.89" stroke="#1a1a1a" stroke-width="2.64" stroke-linecap="round"/>
<line x1="124.32" y1="428.98" x2="137.45" y2="427.60" stroke="#1a1a1a" stroke-width="2.64" stroke-linecap="round"/>
<line x1="122.80" y1="400.00" x2="169.00" y2="400.00" stroke="#1a1a1a" stroke-width="9.24" stroke-linecap="round"/>
<line x1="124.32" y1="371.02" x2="137.45" y2="372.40" stroke="#1a1a1a" stroke-width="2.64" stroke-linecap="round"/>
<line x1="128.86" y1="342.37" x2="141.77" y2="345.11" stroke="#1a1a1a" stroke-width="2.64" stroke-linecap="round"/>
<line x1="136.37" y1="314.34" x2="148.92" y2="318.42" stroke="#1a1a1a" stroke-width="2.64" stroke-linecap="round"/>
<line x1="146.77" y1="287.25" x2="158.82" y2="292.62" stroke="#1a1a1a" stroke-width="2.64" stroke-linecap="round"/>
<line x1="159.94" y1="261.40" x2="199.95" y2="284.50" stroke="#1a1a1a" stroke-width="9.24" stroke-linecap="round"/>
<line x1="175.74" y1="237.07" x2="186.42" y2="244.82" stroke="#1a1a1a" stroke-width="2.64" stroke-linecap="round"/>
<line x1="194.00" y1="214.52" x2="203.81" y2="223.35" stroke="#1a1a1a" stroke-width="2.64" stroke-linecap="round"/>
<line x1="214.52" y1="194.00" x2="223.35" y2="203.81" stroke="#1a1a1a" stroke-width="2.64" stroke-linecap="round"/>
<line x1="237.07" y1="175.74" x2="244.82" y2="186.42" stroke="#1a1a1a" stroke-width="2.64" stroke-linecap="round"/>
<line x1="261.40" y1="159.94" x2="284.50" y2="199.95" stroke="#1a1a1a" stroke-width="9.24" stroke-linecap="round"/>
<line x1="287.25" y1="146.77" x2="292.62" y2="158.82" stroke="#1a1a1a" stroke-width="2.64" stroke-linecap="round"/>
<line x1="314.34" y1="136.37" x2="318.42" y2="148.92" stroke="#1a1a1a" stroke-width="2.64" stroke-linecap="round"/>
<line x1="342.37" y1="128.86" x2="345.11" y2="141.77" stroke="#1a1a1a" stroke-width="2.64" stroke-linecap="round"/>
<line x1="371.02" y1="124.32" x2="372.40" y2="137.45" stroke="#1a1a1a" stroke-width="2.64" stroke-linecap="round"/>
<text x="400" y="294.4" text-anchor="middle" font-family="Helvetica, Arial, sans-serif" font-size="33.0" letter-spacing="9.9" fill="#1a1a1a" font-weight="600">HALDEN</text>
<text x="400" y="538.6" text-anchor="middle" font-family="Helvetica, Arial, sans-serif" font-size="18.1" letter-spacing="6.6" fill="#1a1a1a" opacity=".6">AUTOMATIC</text>
<g opacity=".25" transform="translate(6.6,9.9)"><line x1="400.00" y1="400.00" x2="564.37" y2="385.62" stroke="#000" stroke-width="19.80" stroke-linecap="round"/><line x1="400.00" y1="400.00" x2="182.80" y2="274.60" stroke="#000" stroke-width="13.20" stroke-linecap="round"/></g>
<line x1="400.00" y1="400.00" x2="564.37" y2="385.62" stroke="#1a1a1a" stroke-width="19.80" stroke-linecap="round"/>
<line x1="400.00" y1="400.00" x2="182.80" y2="274.60" stroke="#1a1a1a" stroke-width="13.20" stroke-linecap="round"/>
<line x1="343.51" y1="418.36" x2="651.08" y2="318.42" stroke="#111" stroke-width="3.96" stroke-linecap="round"/>
<circle cx="400" cy="400" r="14.85" fill="#111"/>
<circle cx="400" cy="400" r="5.9399999999999995" fill="#e9e6e0"/>
<path d="M 152.5 284.5 A 280.5 280.5 0 0 1 515.5 142.6 L 466.0 202.0 A 231.0 231.0 0 0 0 218.5 317.5 Z" fill="#fff" opacity=".12"/>
</svg>
